Coordinates
version=1
nRows=26
nColumns=22
inDegrees=yes

Units are S.I. units (second, meters, Newtons, ...)
If the header above contains a line with 'inDegrees', this indicates whether rotational values are in degrees (yes) or radians (no).

endheader
time	pelvis_tilt	pelvis_list	pelvis_rotation	pelvis_tx	pelvis_ty	pelvis_tz	hip_flexion_r	hip_adduction_r	hip_rotation_r	knee_angle_r	ankle_angle_r	subtalar_angle_r	hip_flexion_l	hip_adduction_l	hip_rotation_l	knee_angle_l	ankle_angle_l	subtalar_angle_l	lumbar_extension	lumbar_bending	lumbar_rotation
      1.37000000	     -6.58511622	      4.31161235	    -49.18689254	     -1.13869093	      0.86063640	     -0.10737336	     -4.06443709	     -6.47460763	     11.71493044	    -32.16131348	      2.00282465	     12.29296231	     33.05168407	     -8.17582142	     -8.47252014	    -34.51843670	      9.21713448	     -0.36415095	     -1.16062274	     -3.07078329	     18.87641019
      1.38000000	     -6.72084301	      4.25181969	    -49.07862829	     -1.13048536	      0.86248776	     -0.10457154	     -2.57532819	     -6.29787527	     11.60068554	    -34.96139551	      0.22615007	     12.39574912	     32.34592216	     -7.95759178	     -8.52550481	    -34.19086328	      9.72753663	     -0.46499117	     -1.06259276	     -2.95539257	     18.81291830
      1.39000000	     -6.81358273	      4.19784977	    -48.93701126	     -1.12238906	      0.86423751	     -0.10188082	     -0.99642250	     -6.15815304	     11.38150422	    -37.87133265	     -1.34660437	     12.42327699	     31.62080330	     -7.69148060	     -8.56869439	    -33.83898848	     10.21125841	     -0.55389265	     -1.00347700	     -2.87168782	     18.69474177
      1.40000000	     -6.85214751	      4.14555064	    -48.76150546	     -1.11436843	      0.86589254	     -0.09927875	      0.62718233	     -6.07131582	     11.07192469	    -40.82377269	     -2.66880390	     12.40623274	     30.86104769	     -7.37074575	     -8.60153382	    -33.46173533	     10.67200858	     -0.62826873	     -0.99128151	     -2.82502376	     18.51861033
      1.41000000	     -6.84371678	      4.09317222	    -48.54964274	     -1.10641845	      0.86743484	     -0.09674235	      2.27054137	     -6.03573830	     10.68480794	    -43.76589433	     -3.66904578	     12.36761436	     30.07644199	     -7.00450198	     -8.61757545	    -33.07057047	     11.11426757	     -0.69900329	     -1.01961533	     -2.81142947	     18.28375998
      1.42000000	     -6.79009398	      4.02728589	    -48.30021358	     -1.09849392	      0.86889881	     -0.09426577	      3.88907873	     -6.04534614	     10.23757199	    -46.62669629	     -4.31651373	     12.32259384	     29.25332102	     -6.60002064	     -8.61155447	    -32.66361073	     11.54456171	     -0.76534280	     -1.09569634	     -2.81276236	     17.99070245
      1.43000000	     -6.70355438	      3.94548711	    -48.01232974	     -1.09058850	      0.87029758	     -0.09182173	      5.46318771	     -6.08344305	      9.75167841	    -49.35546754	     -4.58868378	     12.26920559	     28.39592707	     -6.16988609	     -8.57606892	    -32.23913725	     11.96055543	     -0.82351610	     -1.20808149	     -2.81862511	     17.63163901
      1.44000000	     -6.60574138	      3.83855323	    -47.68637082	     -1.08271001	      0.87163735	     -0.08939785	      6.98555992	     -6.12361340	      9.23557608	    -51.91716612	     -4.49226931	     12.17981597	     27.51757717	     -5.74303190	     -8.50820866	    -31.80731566	     12.36740379	     -0.88519544	     -1.34765939	     -2.80423903	     17.22638068
      1.45000000	     -6.50950785	      3.70715388	    -47.32500134	     -1.07485963	      0.87293151	     -0.08697870	      8.45588809	     -6.14954202	      8.69819110	    -54.28244314	     -4.09268264	     12.04590089	     26.62476416	     -5.33132978	     -8.40645879	    -31.36493937	     12.75459529	     -0.94820333	     -1.50053675	     -2.75979077	     16.78407361
      1.46000000	     -6.42059346	      3.55213499	    -46.92698689	     -1.06704966	      0.87418514	     -0.08456867	      9.87520103	     -6.14983306	      8.15282471	    -56.43660146	     -3.47921694	     11.88211091	     25.72470903	     -4.94067747	     -8.26591852	    -30.91385623	     13.12554362	     -1.00770468	     -1.66273113	     -2.68292611	     16.30163947
      1.47000000	     -6.34343554	      3.37890863	    -46.49333458	     -1.05927553	      0.87540441	     -0.08215400	     11.24831184	     -6.12131169	      7.60143494	    -58.36871451	     -2.74758396	     11.71024870	     24.82137471	     -4.57206400	     -8.08011473	    -30.45195751	     13.47967867	     -1.06529601	     -1.82422220	     -2.57571875	     15.78936551
      1.48000000	     -6.27623552	      3.18987667	    -46.02099145	     -1.05153447	      0.87659265	     -0.07973950	     12.57274517	     -6.06373263	      7.04799698	    -60.07010334	     -1.97214903	     11.56847259	     23.91451342	     -4.22275475	     -7.84573788	    -29.97643933	     13.81858759	     -1.11861873	     -1.98346114	     -2.44158223	     15.23720479
      1.49000000	     -6.21642943	      2.98383202	    -45.50897564	     -1.04381586	      0.87775390	     -0.07731863	     13.84017966	     -5.97683576	      6.49209740	    -61.53318727	     -1.20487102	     11.49534525	     23.00204266	     -3.89468998	     -7.56802567	    -29.49102615	     14.14512639	     -1.16287022	     -2.14356133	     -2.28291782	     14.64716980
      1.50000000	     -6.16083025	      2.77658143	    -44.95470783	     -1.03610431	      0.87887981	     -0.07490018	     15.06059778	     -5.87998126	      5.92634223	    -62.75667396	     -0.48168055	     11.48599991	     22.08717639	     -3.57037057	     -7.23905339	    -28.98337637	     14.44210960	     -1.20909898	     -2.29165425	     -2.11503323	     14.01957806
      1.51000000	     -6.10644109	      2.56315404	    -44.36511196	     -1.02841551	      0.87997127	     -0.07248182	     16.22840868	     -5.76895720	      5.36064173	    -63.73929671	      0.19520903	     11.54865967	     21.16643843	     -3.25737125	     -6.86867391	    -28.46112694	     14.71483877	     -1.25909922	     -2.43771053	     -1.93674769	     13.36301410
      1.52000000	     -6.05099286	      2.34528985	    -43.74827484	     -1.02076036	      0.88102465	     -0.07005514	     17.34439963	     -5.64544416	      4.80146138	    -64.48288384	      0.84274150	     11.67956590	     20.23844961	     -2.95604176	     -6.45526403	    -27.92589843	     14.97065251	     -1.31659144	     -2.58153993	     -1.75363674	     12.69287965
      1.53000000	     -5.99696548	      2.12630693	    -43.11277694	     -1.01314981	      0.88201694	     -0.06760273	     18.41330815	     -5.50763551	      4.25843340	    -64.98957685	      1.49646638	     11.83579403	     19.31349441	     -2.67616315	     -6.03272074	    -27.39512908	     15.22201187	     -1.36425361	     -2.71982200	     -1.56665130	     12.00401986
      1.54000000	     -5.94979482	      1.91106304	    -42.47469607	     -1.00559916	      0.88294470	     -0.06511009	     19.44672491	     -5.35400023	      3.74091791	    -65.26000095	      2.15028055	     11.99781773	     18.38755414	     -2.41895482	     -5.59305357	    -26.84829176	     15.46345350	     -1.41438977	     -2.84412163	     -1.37641000	     11.33540120
      1.55000000	     -5.90834356	      1.70130300	    -41.84113302	     -0.99810033	      0.88380596	     -0.06256698	     20.44243715	     -5.18700903	      3.25518721	    -65.29301105	      2.80638944	     12.15689324	     17.46006868	     -2.18357533	     -5.14118690	    -26.28736511	     15.69300098	     -1.47338270	     -2.95332363	     -1.18393489	     10.68411410
      1.56000000	     -5.87406943	      1.49886068	    -41.22293848	     -0.99068636	      0.88459078	     -0.05993831	     21.40437791	     -5.00273407	      2.80916458	    -65.09381050	      3.46533655	     12.29394298	     16.53641475	     -1.97829884	     -4.70005869	    -25.71992157	     15.91872890	     -1.53532509	     -3.04908840	     -0.99796422	     10.06939188
      1.57000000	     -5.83936293	      1.30233640	    -40.62635253	     -0.98334038	      0.88530959	     -0.05723476	     22.32297375	     -4.80575110	      2.41259054	    -64.66187024	      4.10565102	     12.40984684	     15.60375007	     -1.79581378	     -4.26733782	    -25.13638463	     16.13813967	     -1.60315544	     -3.13859641	     -0.81647975	      9.48751841
      1.58000000	     -5.80235920	      1.11738784	    -40.06046165	     -0.97605381	      0.88594495	     -0.05445320	     23.19962723	     -4.61007135	      2.05993733	    -64.00264987	      4.73579360	     12.49341212	     14.66541557	     -1.63346245	     -3.86876809	    -24.54244059	     16.35915959	     -1.66214669	     -3.22126201	     -0.64372800	      8.94977606
      1.59000000	     -5.74296219	      0.93334069	    -39.52772805	     -0.96885972	      0.88653935	     -0.05158084	     24.00860333	     -4.40705409	      1.77442963	    -63.12124998	      5.31406700	     12.55214293	     13.68871169	     -1.48498826	     -3.49114177	    -23.91679878	     16.57424754	     -1.72068323	     -3.32976656	     -0.49057036	      8.44403524
      1.60000000	     -5.66653492	      0.76240220	    -39.03796833	     -0.96171130	      0.88706021	     -0.04860699	     24.75437750	     -4.22462229	      1.52608903	    -62.01620331	      5.87086386	     12.58133858	     12.68610107	     -1.34588073	     -3.16651908	    -23.26821176	     16.79072305	     -1.76401527	     -3.44360567	     -0.35908535	      8.00804689
      1.61000000	     -5.55338419	      0.59786787	    -38.59666384	     -0.95462892	      0.88754287	     -0.04552868	     25.41315190	     -4.04970064	      1.35310913	    -60.69457107	      6.36867302	     12.58166068	     11.63113601	     -1.20454195	     -2.88195701	    -22.58429574	     17.00109835	     -1.79722607	     -3.59282877	     -0.25712390	      7.61943380
      1.62000000	     -5.40299229	      0.44627916	    -38.20524200	     -0.94758901	      0.88797510	     -0.04232578	     25.98234883	     -3.89684960	      1.24106976	    -59.16252049	      6.81720354	     12.55847913	     10.52779323	     -1.05520227	     -2.64803011	    -21.87099664	     17.20036113	     -1.82021831	     -3.77041623	     -0.19334882	      7.28730122
